<svg width="58" height="57" viewBox="0 0 58 57" fill="none" xmlns="http://www.w3.org/2000/svg">
<g filter="url(#filter0_dd_1257_131469)">
<g clip-path="url(#clip0_1257_131469)">
<path d="M5 27C5 21.4202 5 18.6303 5.61334 16.3413C7.27774 10.1296 12.1296 5.27774 18.3413 3.61334C20.6303 3 23.4202 3 29 3C34.5798 3 37.3697 3 39.6587 3.61334C45.8704 5.27774 50.7223 10.1296 52.3867 16.3413C53 18.6303 53 21.4202 53 27C53 32.5798 53 35.3697 52.3867 37.6587C50.7223 43.8704 45.8704 48.7223 39.6587 50.3867C37.3697 51 34.5798 51 29 51C23.4202 51 20.6303 51 18.3413 50.3867C12.1296 48.7223 7.27774 43.8704 5.61334 37.6587C5 35.3697 5 32.5798 5 27Z" fill="white"/>
<path d="M5 27C5 21.4202 5 18.6303 5.61334 16.3413C7.27774 10.1296 12.1296 5.27774 18.3413 3.61334C20.6303 3 23.4202 3 29 3C34.5798 3 37.3697 3 39.6587 3.61334C45.8704 5.27774 50.7223 10.1296 52.3867 16.3413C53 18.6303 53 21.4202 53 27C53 32.5798 53 35.3697 52.3867 37.6587C50.7223 43.8704 45.8704 48.7223 39.6587 50.3867C37.3697 51 34.5798 51 29 51C23.4202 51 20.6303 51 18.3413 50.3867C12.1296 48.7223 7.27774 43.8704 5.61334 37.6587C5 35.3697 5 32.5798 5 27Z" fill="url(#paint0_linear_1257_131469)"/>
<path fill-rule="evenodd" clip-rule="evenodd" d="M29 6.05828C17.4342 6.05828 8.05828 15.4342 8.05828 27C8.05828 38.5658 17.4342 47.9418 29 47.9418C40.5658 47.9418 49.9418 38.5658 49.9418 27C49.9418 15.4342 40.5658 6.05828 29 6.05828ZM7.94177 27C7.94177 15.3699 17.3699 5.94177 29 5.94177C40.6302 5.94177 50.0583 15.3699 50.0583 27C50.0583 38.6302 40.6302 48.0583 29 48.0583C17.3699 48.0583 7.94177 38.6302 7.94177 27Z" fill="#D0D5DD"/>
<path fill-rule="evenodd" clip-rule="evenodd" d="M29 21.1169C25.7506 21.1169 23.1165 23.751 23.1165 27.0004C23.1165 30.2497 25.7506 32.8839 29 32.8839C32.2494 32.8839 34.8835 30.2497 34.8835 27.0004C34.8835 23.751 32.2494 21.1169 29 21.1169ZM23 27.0004C23 23.6867 25.6863 21.0004 29 21.0004C32.3137 21.0004 35 23.6867 35 27.0004C35 30.3141 32.3137 33.0004 29 33.0004C25.6863 33.0004 23 30.3141 23 27.0004Z" fill="#D0D5DD"/>
<path fill-rule="evenodd" clip-rule="evenodd" d="M29.0001 22.9802C26.7802 22.9802 24.9806 24.7797 24.9806 26.9996C24.9806 29.2194 26.7802 31.019 29.0001 31.019C31.2199 31.019 33.0195 29.2194 33.0195 26.9996C33.0195 24.7797 31.2199 22.9802 29.0001 22.9802ZM24.8641 26.9996C24.8641 24.7154 26.7159 22.8636 29.0001 22.8636C31.2843 22.8636 33.136 24.7154 33.136 26.9996C33.136 29.2838 31.2843 31.1355 29.0001 31.1355C26.7159 31.1355 24.8641 29.2838 24.8641 26.9996Z" fill="#D0D5DD"/>
<path d="M28.9418 3H29.0583V51H28.9418V3Z" fill="#D0D5DD"/>
<path d="M53 26.9414L53 27.0579L5 27.0579L5 26.9414L53 26.9414Z" fill="#D0D5DD"/>
<path d="M44.9029 3H45.0194V51H44.9029V3Z" fill="#D0D5DD"/>
<path d="M20.9611 3H21.0776V51H20.9611V3Z" fill="#D0D5DD"/>
<path d="M36.9224 3H37.0389V51H36.9224V3Z" fill="#D0D5DD"/>
<path d="M12.9806 3H13.0971V51H12.9806V3Z" fill="#D0D5DD"/>
<path d="M53 42.9023L53 43.0188L5 43.0188L5 42.9023L53 42.9023Z" fill="#D0D5DD"/>
<path d="M53 18.9609L53 19.0774L5 19.0774L5 18.9609L53 18.9609Z" fill="#D0D5DD"/>
<path d="M53 34.9219L53 35.0384L5 35.0384L5 34.9219L53 34.9219Z" fill="#D0D5DD"/>
<path d="M53 10.9805L53 11.097L5 11.097L5 10.9805L53 10.9805Z" fill="#D0D5DD"/>
<g filter="url(#filter1_dd_1257_131469)">
<circle cx="29" cy="27" r="12" fill="url(#paint1_linear_1257_131469)"/>
</g>
<g filter="url(#filter2_b_1257_131469)">
<path d="M5 27H53C53 32.5798 53 35.3697 52.3867 37.6587C50.7223 43.8704 45.8704 48.7223 39.6587 50.3867C37.3697 51 34.5798 51 29 51C23.4202 51 20.6303 51 18.3413 50.3867C12.1296 48.7223 7.27774 43.8704 5.61334 37.6587C5 35.3697 5 32.5798 5 27Z" fill="white" fill-opacity="0.2"/>
</g>
</g>
<path d="M5.15 27C5.15 21.4105 5.15129 18.6452 5.75822 16.3801C7.40876 10.2202 12.2202 5.40876 18.3801 3.75822C20.6452 3.15129 23.4105 3.15 29 3.15C34.5895 3.15 37.3548 3.15129 39.6199 3.75822C45.7798 5.40876 50.5912 10.2202 52.2418 16.3801C52.8487 18.6452 52.85 21.4105 52.85 27C52.85 32.5895 52.8487 35.3548 52.2418 37.6199C50.5912 43.7798 45.7798 48.5912 39.6199 50.2418C37.3548 50.8487 34.5895 50.85 29 50.85C23.4105 50.85 20.6452 50.8487 18.3801 50.2418C12.2202 48.5912 7.40876 43.7798 5.75822 37.6199C5.15129 35.3548 5.15 32.5895 5.15 27Z" stroke="#D0D5DD" stroke-width="0.3"/>
</g>
<defs>
<filter id="filter0_dd_1257_131469" x="0.5" y="0" width="57" height="57" filterUnits="userSpaceOnUse" color-interpolation-filters="sRGB">
<feFlood flood-opacity="0" result="BackgroundImageFix"/>
<feColorMatrix in="SourceAlpha" type="matrix" values="0 0 0 0 0 0 0 0 0 0 0 0 0 0 0 0 0 0 127 0" result="hardAlpha"/>
<feOffset dy="1.5"/>
<feGaussianBlur stdDeviation="1.5"/>
<feColorMatrix type="matrix" values="0 0 0 0 0.0627451 0 0 0 0 0.0941176 0 0 0 0 0.156863 0 0 0 0.06 0"/>
<feBlend mode="normal" in2="BackgroundImageFix" result="effect1_dropShadow_1257_131469"/>
<feColorMatrix in="SourceAlpha" type="matrix" values="0 0 0 0 0 0 0 0 0 0 0 0 0 0 0 0 0 0 127 0" result="hardAlpha"/>
<feOffset dy="1.5"/>
<feGaussianBlur stdDeviation="2.25"/>
<feColorMatrix type="matrix" values="0 0 0 0 0.0627451 0 0 0 0 0.0941176 0 0 0 0 0.156863 0 0 0 0.1 0"/>
<feBlend mode="normal" in2="effect1_dropShadow_1257_131469" result="effect2_dropShadow_1257_131469"/>
<feBlend mode="normal" in="SourceGraphic" in2="effect2_dropShadow_1257_131469" result="shape"/>
</filter>
<filter id="filter1_dd_1257_131469" x="12.5" y="12" width="33" height="33" filterUnits="userSpaceOnUse" color-interpolation-filters="sRGB">
<feFlood flood-opacity="0" result="BackgroundImageFix"/>
<feColorMatrix in="SourceAlpha" type="matrix" values="0 0 0 0 0 0 0 0 0 0 0 0 0 0 0 0 0 0 127 0" result="hardAlpha"/>
<feOffset dy="1.5"/>
<feGaussianBlur stdDeviation="1.5"/>
<feColorMatrix type="matrix" values="0 0 0 0 0.0627451 0 0 0 0 0.0941176 0 0 0 0 0.156863 0 0 0 0.06 0"/>
<feBlend mode="normal" in2="BackgroundImageFix" result="effect1_dropShadow_1257_131469"/>
<feColorMatrix in="SourceAlpha" type="matrix" values="0 0 0 0 0 0 0 0 0 0 0 0 0 0 0 0 0 0 127 0" result="hardAlpha"/>
<feOffset dy="1.5"/>
<feGaussianBlur stdDeviation="2.25"/>
<feColorMatrix type="matrix" values="0 0 0 0 0.0627451 0 0 0 0 0.0941176 0 0 0 0 0.156863 0 0 0 0.1 0"/>
<feBlend mode="normal" in2="effect1_dropShadow_1257_131469" result="effect2_dropShadow_1257_131469"/>
<feBlend mode="normal" in="SourceGraphic" in2="effect2_dropShadow_1257_131469" result="shape"/>
</filter>
<filter id="filter2_b_1257_131469" x="-2.5" y="19.5" width="63" height="39" filterUnits="userSpaceOnUse" color-interpolation-filters="sRGB">
<feFlood flood-opacity="0" result="BackgroundImageFix"/>
<feGaussianBlur in="BackgroundImageFix" stdDeviation="3.75"/>
<feComposite in2="SourceAlpha" operator="in" result="effect1_backgroundBlur_1257_131469"/>
<feBlend mode="normal" in="SourceGraphic" in2="effect1_backgroundBlur_1257_131469" result="shape"/>
</filter>
<linearGradient id="paint0_linear_1257_131469" x1="29" y1="3" x2="29" y2="51" gradientUnits="userSpaceOnUse">
<stop stop-color="white"/>
<stop offset="1" stop-color="#D0D5DD"/>
</linearGradient>
<linearGradient id="paint1_linear_1257_131469" x1="23" y1="39" x2="35" y2="15" gradientUnits="userSpaceOnUse">
<stop stop-color="#53389E"/>
<stop offset="1" stop-color="#6941C6"/>
</linearGradient>
<clipPath id="clip0_1257_131469">
<path d="M5 27C5 21.4202 5 18.6303 5.61334 16.3413C7.27774 10.1296 12.1296 5.27774 18.3413 3.61334C20.6303 3 23.4202 3 29 3C34.5798 3 37.3697 3 39.6587 3.61334C45.8704 5.27774 50.7223 10.1296 52.3867 16.3413C53 18.6303 53 21.4202 53 27C53 32.5798 53 35.3697 52.3867 37.6587C50.7223 43.8704 45.8704 48.7223 39.6587 50.3867C37.3697 51 34.5798 51 29 51C23.4202 51 20.6303 51 18.3413 50.3867C12.1296 48.7223 7.27774 43.8704 5.61334 37.6587C5 35.3697 5 32.5798 5 27Z" fill="white"/>
</clipPath>
</defs>
</svg>
